<?xml version="1.0" encoding="UTF-8" standalone="no"?>
<!DOCTYPE svg PUBLIC "-//W3C//DTD SVG 1.1//EN" "http://www.w3.org/Graphics/SVG/1.1/DTD/svg11.dtd">
<!-- Generated by graphviz version 2.40.1 (20161225.0304)
 -->
<!-- Title: pipeline Pages: 1 -->
<svg width="7182pt" height="626pt" viewBox="0.00 0.00 7182.11 626.00" xmlns="http://www.w3.org/2000/svg" xmlns:xlink="http://www.w3.org/1999/xlink">
<g id="graph0" class="graph" transform="scale(1 1) rotate(0) translate(4 622)">
<title>pipeline</title>
<polygon fill="#ffffff" stroke="transparent" points="-4,4 -4,-622 7178.1104,-622 7178.1104,4 -4,4"/>
<text text-anchor="middle" x="3587.0552" y="-605" font-family="sans" font-size="10.00" fill="#000000">&lt;GstPipeline&gt;</text>
<text text-anchor="middle" x="3587.0552" y="-593" font-family="sans" font-size="10.00" fill="#000000">pipeline1</text>
<text text-anchor="middle" x="3587.0552" y="-581" font-family="sans" font-size="10.00" fill="#000000">[=] -&gt; [&gt;]</text>
<g id="clust1" class="cluster">
<title>cluster_capsfilter5_0xaaaaedfa9230</title>
<path fill="#aaffaa" stroke="#000000" d="M4148.5492,-82C4148.5492,-82 4555.5492,-82 4555.5492,-82 4561.5492,-82 4567.5492,-88 4567.5492,-94 4567.5492,-94 4567.5492,-209 4567.5492,-209 4567.5492,-215 4561.5492,-221 4555.5492,-221 4555.5492,-221 4148.5492,-221 4148.5492,-221 4142.5492,-221 4136.5492,-215 4136.5492,-209 4136.5492,-209 4136.5492,-94 4136.5492,-94 4136.5492,-88 4142.5492,-82 4148.5492,-82"/>
<text text-anchor="middle" x="4352.0492" y="-202.6" font-family="Bitstream Vera Sans" font-size="16.00" fill="#000000">GstCapsFilter</text>
<text text-anchor="middle" x="4352.0492" y="-183.4" font-family="Bitstream Vera Sans" font-size="16.00" fill="#000000">capsfilter5</text>
<text text-anchor="middle" x="4352.0492" y="-164.2" font-family="Bitstream Vera Sans" font-size="16.00" fill="#000000">[&gt;]</text>
<text text-anchor="middle" x="4352.0492" y="-145" font-family="Bitstream Vera Sans" font-size="16.00" fill="#000000">caps=video/x-raw, format=(string)RGB</text>
</g>
<g id="clust2" class="cluster">
<title>cluster_capsfilter5_0xaaaaedfa9230_sink</title>
</g>
<g id="clust3" class="cluster">
<title>cluster_capsfilter5_0xaaaaedfa9230_src</title>
</g>
<g id="clust4" class="cluster">
<title>cluster_capsfilter4_0xaaaaedfa8ef0</title>
<path fill="#aaffaa" stroke="#000000" d="M2835.1354,-82C2835.1354,-82 3242.1354,-82 3242.1354,-82 3248.1354,-82 3254.1354,-88 3254.1354,-94 3254.1354,-94 3254.1354,-209 3254.1354,-209 3254.1354,-215 3248.1354,-221 3242.1354,-221 3242.1354,-221 2835.1354,-221 2835.1354,-221 2829.1354,-221 2823.1354,-215 2823.1354,-209 2823.1354,-209 2823.1354,-94 2823.1354,-94 2823.1354,-88 2829.1354,-82 2835.1354,-82"/>
<text text-anchor="middle" x="3038.6354" y="-202.6" font-family="Bitstream Vera Sans" font-size="16.00" fill="#000000">GstCapsFilter</text>
<text text-anchor="middle" x="3038.6354" y="-183.4" font-family="Bitstream Vera Sans" font-size="16.00" fill="#000000">capsfilter4</text>
<text text-anchor="middle" x="3038.6354" y="-164.2" font-family="Bitstream Vera Sans" font-size="16.00" fill="#000000">[&gt;]</text>
<text text-anchor="middle" x="3038.6354" y="-145" font-family="Bitstream Vera Sans" font-size="16.00" fill="#000000">caps=video/x-raw, width=(int)256, height=(int)256</text>
</g>
<g id="clust5" class="cluster">
<title>cluster_capsfilter4_0xaaaaedfa8ef0_sink</title>
</g>
<g id="clust6" class="cluster">
<title>cluster_capsfilter4_0xaaaaedfa8ef0_src</title>
</g>
<g id="clust7" class="cluster">
<title>cluster_capsfilter3_0xaaaaedfa8bb0</title>
<path fill="#aaffaa" stroke="#000000" d="M815.6966,-82C815.6966,-82 1302.6966,-82 1302.6966,-82 1308.6966,-82 1314.6966,-88 1314.6966,-94 1314.6966,-94 1314.6966,-209 1314.6966,-209 1314.6966,-215 1308.6966,-221 1302.6966,-221 1302.6966,-221 815.6966,-221 815.6966,-221 809.6966,-221 803.6966,-215 803.6966,-209 803.6966,-209 803.6966,-94 803.6966,-94 803.6966,-88 809.6966,-82 815.6966,-82"/>
<text text-anchor="middle" x="1059.1966" y="-202.6" font-family="Bitstream Vera Sans" font-size="16.00" fill="#000000">GstCapsFilter</text>
<text text-anchor="middle" x="1059.1966" y="-183.4" font-family="Bitstream Vera Sans" font-size="16.00" fill="#000000">capsfilter3</text>
<text text-anchor="middle" x="1059.1966" y="-164.2" font-family="Bitstream Vera Sans" font-size="16.00" fill="#000000">[&gt;]</text>
<text text-anchor="middle" x="1059.1966" y="-145" font-family="Bitstream Vera Sans" font-size="16.00" fill="#000000">caps=video/x-raw, width=(int)640, height=(int)480, framerate=(fraction)30/1</text>
</g>
<g id="clust8" class="cluster">
<title>cluster_capsfilter3_0xaaaaedfa8bb0_sink</title>
</g>
<g id="clust9" class="cluster">
<title>cluster_capsfilter3_0xaaaaedfa8bb0_src</title>
</g>
<g id="clust10" class="cluster">
<title>cluster_second_tensor_sink_0xaaaaee158090</title>
<path fill="#aaaaff" stroke="#000000" d="M6884.1104,-82C6884.1104,-82 7162.1104,-82 7162.1104,-82 7168.1104,-82 7174.1104,-88 7174.1104,-94 7174.1104,-94 7174.1104,-247 7174.1104,-247 7174.1104,-253 7168.1104,-259 7162.1104,-259 7162.1104,-259 6884.1104,-259 6884.1104,-259 6878.1104,-259 6872.1104,-253 6872.1104,-247 6872.1104,-247 6872.1104,-94 6872.1104,-94 6872.1104,-88 6878.1104,-82 6884.1104,-82"/>
<text text-anchor="middle" x="7023.1104" y="-240.6" font-family="Bitstream Vera Sans" font-size="16.00" fill="#000000">GstTensorSink</text>
<text text-anchor="middle" x="7023.1104" y="-221.4" font-family="Bitstream Vera Sans" font-size="16.00" fill="#000000">second_tensor_sink</text>
<text text-anchor="middle" x="7023.1104" y="-202.2" font-family="Bitstream Vera Sans" font-size="16.00" fill="#000000">[&gt;]</text>
<text text-anchor="middle" x="7023.1104" y="-183" font-family="Bitstream Vera Sans" font-size="16.00" fill="#000000">sync=FALSE</text>
<text text-anchor="middle" x="7023.1104" y="-163.8" font-family="Bitstream Vera Sans" font-size="16.00" fill="#000000">qos=TRUE</text>
<text text-anchor="middle" x="7023.1104" y="-144.6" font-family="Bitstream Vera Sans" font-size="16.00" fill="#000000">last-sample=((GstSample*) 0xffff6400b210)</text>
</g>
<g id="clust11" class="cluster">
<title>cluster_second_tensor_sink_0xaaaaee158090_sink</title>
</g>
<g id="clust12" class="cluster">
<title>cluster_tensor_filter_landmark_0xaaaaee157040</title>
<path fill="#aaffaa" stroke="#000000" d="M6112.2619,-82C6112.2619,-82 6592.2619,-82 6592.2619,-82 6598.2619,-82 6604.2619,-88 6604.2619,-94 6604.2619,-94 6604.2619,-554 6604.2619,-554 6604.2619,-560 6598.2619,-566 6592.2619,-566 6592.2619,-566 6112.2619,-566 6112.2619,-566 6106.2619,-566 6100.2619,-560 6100.2619,-554 6100.2619,-554 6100.2619,-94 6100.2619,-94 6100.2619,-88 6106.2619,-82 6112.2619,-82"/>
<text text-anchor="middle" x="6352.2619" y="-547.6" font-family="Bitstream Vera Sans" font-size="16.00" fill="#000000">GstTensorFilter</text>
<text text-anchor="middle" x="6352.2619" y="-528.4" font-family="Bitstream Vera Sans" font-size="16.00" fill="#000000">tensor_filter_landmark</text>
<text text-anchor="middle" x="6352.2619" y="-509.2" font-family="Bitstream Vera Sans" font-size="16.00" fill="#000000">[&gt;]</text>
<text text-anchor="middle" x="6352.2619" y="-490" font-family="Bitstream Vera Sans" font-size="16.00" fill="#000000">silent=TRUE</text>
<text text-anchor="middle" x="6352.2619" y="-470.8" font-family="Bitstream Vera Sans" font-size="16.00" fill="#000000">framework="tensorflow-lite"</text>
<text text-anchor="middle" x="6352.2619" y="-451.6" font-family="Bitstream Vera Sans" font-size="16.00" fill="#000000">model="pose_landmark_lite_quant.tflite"</text>
<text text-anchor="middle" x="6352.2619" y="-432.4" font-family="Bitstream Vera Sans" font-size="16.00" fill="#000000">input="3:256:256:1"</text>
<text text-anchor="middle" x="6352.2619" y="-413.2" font-family="Bitstream Vera Sans" font-size="16.00" fill="#000000">inputtype="float32"</text>
<text text-anchor="middle" x="6352.2619" y="-394" font-family="Bitstream Vera Sans" font-size="16.00" fill="#000000">inputname="input_1:0"</text>
<text text-anchor="middle" x="6352.2619" y="-374.8" font-family="Bitstream Vera Sans" font-size="16.00" fill="#000000">inputlayout="ANY"</text>
<text text-anchor="middle" x="6352.2619" y="-355.6" font-family="Bitstream Vera Sans" font-size="16.00" fill="#000000">inputranks="3"</text>
<text text-anchor="middle" x="6352.2619" y="-336.4" font-family="Bitstream Vera Sans" font-size="16.00" fill="#000000">output="1:256:256:1,39:64:64:1,1:1:1:1,195:1:1:1,117:1:1:1"</text>
<text text-anchor="middle" x="6352.2619" y="-317.2" font-family="Bitstream Vera Sans" font-size="16.00" fill="#000000">outputtype="float32,float32,float32,float32,float32"</text>
<text text-anchor="middle" x="6352.2619" y="-298" font-family="Bitstream Vera Sans" font-size="16.00" fill="#000000">outputname="Identity_2:0,Identity_3:0,Identity_1:0,Identity:0,Identity_4:0"</text>
<text text-anchor="middle" x="6352.2619" y="-278.8" font-family="Bitstream Vera Sans" font-size="16.00" fill="#000000">outputlayout="ANY,ANY,ANY,ANY,ANY"</text>
<text text-anchor="middle" x="6352.2619" y="-259.6" font-family="Bitstream Vera Sans" font-size="16.00" fill="#000000">outputranks="3,3,1,1,1"</text>
<text text-anchor="middle" x="6352.2619" y="-240.4" font-family="Bitstream Vera Sans" font-size="16.00" fill="#000000">custom="Delegate:External,ExtDelegateLib:libvx_delegate.so"</text>
<text text-anchor="middle" x="6352.2619" y="-221.2" font-family="Bitstream Vera Sans" font-size="16.00" fill="#000000">sub-plugins="custom,tensorflow2-lite,custom-easy,cpp,python3,tvm"</text>
<text text-anchor="middle" x="6352.2619" y="-202" font-family="Bitstream Vera Sans" font-size="16.00" fill="#000000">accelerator="true:npu"</text>
<text text-anchor="middle" x="6352.2619" y="-182.8" font-family="Bitstream Vera Sans" font-size="16.00" fill="#000000">latency=553050</text>
<text text-anchor="middle" x="6352.2619" y="-163.6" font-family="Bitstream Vera Sans" font-size="16.00" fill="#000000">throughput=-1</text>
<text text-anchor="middle" x="6352.2619" y="-144.4" font-family="Bitstream Vera Sans" font-size="16.00" fill="#000000">shared-tensor-filter-key=""</text>
</g>
<g id="clust13" class="cluster">
<title>cluster_tensor_filter_landmark_0xaaaaee157040_sink</title>
</g>
<g id="clust14" class="cluster">
<title>cluster_tensor_filter_landmark_0xaaaaee157040_src</title>
</g>
<g id="clust15" class="cluster">
<title>cluster_tensortransform1_0xaaaaee1557e0</title>
<path fill="#aaffaa" stroke="#000000" d="M5458.759,-82C5458.759,-82 5865.759,-82 5865.759,-82 5871.759,-82 5877.759,-88 5877.759,-94 5877.759,-94 5877.759,-247 5877.759,-247 5877.759,-253 5871.759,-259 5865.759,-259 5865.759,-259 5458.759,-259 5458.759,-259 5452.759,-259 5446.759,-253 5446.759,-247 5446.759,-247 5446.759,-94 5446.759,-94 5446.759,-88 5452.759,-82 5458.759,-82"/>
<text text-anchor="middle" x="5662.259" y="-240.6" font-family="Bitstream Vera Sans" font-size="16.00" fill="#000000">GstTensorTransform</text>
<text text-anchor="middle" x="5662.259" y="-221.4" font-family="Bitstream Vera Sans" font-size="16.00" fill="#000000">tensortransform1</text>
<text text-anchor="middle" x="5662.259" y="-202.2" font-family="Bitstream Vera Sans" font-size="16.00" fill="#000000">[&gt;]</text>
<text text-anchor="middle" x="5662.259" y="-183" font-family="Bitstream Vera Sans" font-size="16.00" fill="#000000">silent=TRUE</text>
<text text-anchor="middle" x="5662.259" y="-163.8" font-family="Bitstream Vera Sans" font-size="16.00" fill="#000000">mode=arithmetic</text>
<text text-anchor="middle" x="5662.259" y="-144.6" font-family="Bitstream Vera Sans" font-size="16.00" fill="#000000">option="typecast:float32,div:255.0"</text>
</g>
<g id="clust16" class="cluster">
<title>cluster_tensortransform1_0xaaaaee1557e0_sink</title>
</g>
<g id="clust17" class="cluster">
<title>cluster_tensortransform1_0xaaaaee1557e0_src</title>
</g>
<g id="clust18" class="cluster">
<title>cluster_tensorconverter1_0xaaaaee160f40</title>
<path fill="#aaffaa" stroke="#000000" d="M4805.2561,-82C4805.2561,-82 5212.2561,-82 5212.2561,-82 5218.2561,-82 5224.2561,-88 5224.2561,-94 5224.2561,-94 5224.2561,-209 5224.2561,-209 5224.2561,-215 5218.2561,-221 5212.2561,-221 5212.2561,-221 4805.2561,-221 4805.2561,-221 4799.2561,-221 4793.2561,-215 4793.2561,-209 4793.2561,-209 4793.2561,-94 4793.2561,-94 4793.2561,-88 4799.2561,-82 4805.2561,-82"/>
<text text-anchor="middle" x="5008.7561" y="-202.6" font-family="Bitstream Vera Sans" font-size="16.00" fill="#000000">GstTensorConverter</text>
<text text-anchor="middle" x="5008.7561" y="-183.4" font-family="Bitstream Vera Sans" font-size="16.00" fill="#000000">tensorconverter1</text>
<text text-anchor="middle" x="5008.7561" y="-164.2" font-family="Bitstream Vera Sans" font-size="16.00" fill="#000000">[&gt;]</text>
<text text-anchor="middle" x="5008.7561" y="-145" font-family="Bitstream Vera Sans" font-size="16.00" fill="#000000">sub-plugins="python3,protobuf"</text>
</g>
<g id="clust19" class="cluster">
<title>cluster_tensorconverter1_0xaaaaee160f40_sink</title>
</g>
<g id="clust20" class="cluster">
<title>cluster_tensorconverter1_0xaaaaee160f40_src</title>
</g>
<g id="clust21" class="cluster">
<title>cluster_videoconvert1_0xaaaaee0cb680</title>
<path fill="#aaffaa" stroke="#000000" d="M3491.8423,-82C3491.8423,-82 3898.8423,-82 3898.8423,-82 3904.8423,-82 3910.8423,-88 3910.8423,-94 3910.8423,-94 3910.8423,-209 3910.8423,-209 3910.8423,-215 3904.8423,-221 3898.8423,-221 3898.8423,-221 3491.8423,-221 3491.8423,-221 3485.8423,-221 3479.8423,-215 3479.8423,-209 3479.8423,-209 3479.8423,-94 3479.8423,-94 3479.8423,-88 3485.8423,-82 3491.8423,-82"/>
<text text-anchor="middle" x="3695.3423" y="-202.6" font-family="Bitstream Vera Sans" font-size="16.00" fill="#000000">GstVideoConvert</text>
<text text-anchor="middle" x="3695.3423" y="-183.4" font-family="Bitstream Vera Sans" font-size="16.00" fill="#000000">videoconvert1</text>
<text text-anchor="middle" x="3695.3423" y="-164.2" font-family="Bitstream Vera Sans" font-size="16.00" fill="#000000">[&gt;]</text>
<text text-anchor="middle" x="3695.3423" y="-145" font-family="Bitstream Vera Sans" font-size="16.00" fill="#000000">qos=TRUE</text>
</g>
<g id="clust22" class="cluster">
<title>cluster_videoconvert1_0xaaaaee0cb680_sink</title>
</g>
<g id="clust23" class="cluster">
<title>cluster_videoconvert1_0xaaaaee0cb680_src</title>
</g>
<g id="clust24" class="cluster">
<title>cluster_imxvideoconvert_g2d2_0xaaaaedfaf060</title>
<path fill="#aaffaa" stroke="#000000" d="M2178.4285,-82C2178.4285,-82 2585.4285,-82 2585.4285,-82 2591.4285,-82 2597.4285,-88 2597.4285,-94 2597.4285,-94 2597.4285,-209 2597.4285,-209 2597.4285,-215 2591.4285,-221 2585.4285,-221 2585.4285,-221 2178.4285,-221 2178.4285,-221 2172.4285,-221 2166.4285,-215 2166.4285,-209 2166.4285,-209 2166.4285,-94 2166.4285,-94 2166.4285,-88 2172.4285,-82 2178.4285,-82"/>
<text text-anchor="middle" x="2381.9285" y="-202.6" font-family="Bitstream Vera Sans" font-size="16.00" fill="#000000">imxvideoconvert_g2d</text>
<text text-anchor="middle" x="2381.9285" y="-183.4" font-family="Bitstream Vera Sans" font-size="16.00" fill="#000000">imxvideoconvert_g2d2</text>
<text text-anchor="middle" x="2381.9285" y="-164.2" font-family="Bitstream Vera Sans" font-size="16.00" fill="#000000">[&gt;]</text>
<text text-anchor="middle" x="2381.9285" y="-145" font-family="Bitstream Vera Sans" font-size="16.00" fill="#000000">qos=TRUE</text>
</g>
<g id="clust25" class="cluster">
<title>cluster_imxvideoconvert_g2d2_0xaaaaedfaf060_sink</title>
</g>
<g id="clust26" class="cluster">
<title>cluster_imxvideoconvert_g2d2_0xaaaaedfaf060_src</title>
</g>
<g id="clust27" class="cluster">
<title>cluster_video_crop_0xaaaaedfae650</title>
<path fill="#aaffaa" stroke="#000000" d="M1522.9285,-82C1522.9285,-82 1929.9285,-82 1929.9285,-82 1935.9285,-82 1941.9285,-88 1941.9285,-94 1941.9285,-94 1941.9285,-286 1941.9285,-286 1941.9285,-292 1935.9285,-298 1929.9285,-298 1929.9285,-298 1522.9285,-298 1522.9285,-298 1516.9285,-298 1510.9285,-292 1510.9285,-286 1510.9285,-286 1510.9285,-94 1510.9285,-94 1510.9285,-88 1516.9285,-82 1522.9285,-82"/>
<text text-anchor="middle" x="1726.4285" y="-279.6" font-family="Bitstream Vera Sans" font-size="16.00" fill="#000000">GstVideoCrop</text>
<text text-anchor="middle" x="1726.4285" y="-260.4" font-family="Bitstream Vera Sans" font-size="16.00" fill="#000000">video_crop</text>
<text text-anchor="middle" x="1726.4285" y="-241.2" font-family="Bitstream Vera Sans" font-size="16.00" fill="#000000">[&gt;]</text>
<text text-anchor="middle" x="1726.4285" y="-222" font-family="Bitstream Vera Sans" font-size="16.00" fill="#000000">qos=TRUE</text>
<text text-anchor="middle" x="1726.4285" y="-202.8" font-family="Bitstream Vera Sans" font-size="16.00" fill="#000000">left=118</text>
<text text-anchor="middle" x="1726.4285" y="-183.6" font-family="Bitstream Vera Sans" font-size="16.00" fill="#000000">right=175</text>
<text text-anchor="middle" x="1726.4285" y="-164.4" font-family="Bitstream Vera Sans" font-size="16.00" fill="#000000">top=41</text>
<text text-anchor="middle" x="1726.4285" y="-145.2" font-family="Bitstream Vera Sans" font-size="16.00" fill="#000000">bottom=92</text>
</g>
<g id="clust28" class="cluster">
<title>cluster_video_crop_0xaaaaedfae650_sink</title>
</g>
<g id="clust29" class="cluster">
<title>cluster_video_crop_0xaaaaedfae650_src</title>
</g>
<g id="clust30" class="cluster">
<title>cluster_appsrc_video_0xaaaaedfacad0</title>
<path fill="#ffaaaa" stroke="#000000" d="M12,-82C12,-82 580,-82 580,-82 586,-82 592,-88 592,-94 592,-94 592,-286 592,-286 592,-292 586,-298 580,-298 580,-298 12,-298 12,-298 6,-298 0,-292 0,-286 0,-286 0,-94 0,-94 0,-88 6,-82 12,-82"/>
<text text-anchor="middle" x="296" y="-279.6" font-family="Bitstream Vera Sans" font-size="16.00" fill="#000000">GstAppSrc</text>
<text text-anchor="middle" x="296" y="-260.4" font-family="Bitstream Vera Sans" font-size="16.00" fill="#000000">appsrc_video</text>
<text text-anchor="middle" x="296" y="-241.2" font-family="Bitstream Vera Sans" font-size="16.00" fill="#000000">[&gt;]</text>
<text text-anchor="middle" x="296" y="-222" font-family="Bitstream Vera Sans" font-size="16.00" fill="#000000">caps=video/x-raw, width=(int)640, height=(int)480, framerate=(fraction)30/1, format=(…</text>
<text text-anchor="middle" x="296" y="-202.8" font-family="Bitstream Vera Sans" font-size="16.00" fill="#000000">max-buffers=1</text>
<text text-anchor="middle" x="296" y="-183.6" font-family="Bitstream Vera Sans" font-size="16.00" fill="#000000">format=time</text>
<text text-anchor="middle" x="296" y="-164.4" font-family="Bitstream Vera Sans" font-size="16.00" fill="#000000">is-live=TRUE</text>
<text text-anchor="middle" x="296" y="-145.2" font-family="Bitstream Vera Sans" font-size="16.00" fill="#000000">leaky-type=downstream</text>
</g>
<g id="clust31" class="cluster">
<title>cluster_appsrc_video_0xaaaaedfacad0_src</title>
</g>
<!-- legend -->
<g id="node1" class="node">
<title>legend</title>
<polygon fill="#d3d3d3" stroke="#000000" points="437.4293,-62 154.5707,-62 154.5707,0 437.4293,0 437.4293,-62"/>
<text text-anchor="start" x="158.5354" y="-49.9" font-family="sans" font-size="9.00" fill="#000000">Legend</text>
<text text-anchor="start" x="158.5354" y="-39.1" font-family="sans" font-size="9.00" fill="#000000">Element-States: [~] void-pending, [0] null, [-] ready, [=] paused, [&gt;] playing</text>
<text text-anchor="start" x="158.5354" y="-28.3" font-family="sans" font-size="9.00" fill="#000000">Pad-Activation: [-] none, [&gt;] push, [&lt;] pull</text>
<text text-anchor="start" x="158.5354" y="-17.5" font-family="sans" font-size="9.00" fill="#000000">Pad-Flags: [b]locked, [f]lushing, [b]locking, [E]OS; upper-case is set</text>
<text text-anchor="start" x="158.5354" y="-6.7" font-family="sans" font-size="9.00" fill="#000000">Pad-Task: [T] has started task, [t] has paused task</text>
</g>
<!-- capsfilter5_0xaaaaedfa9230_sink_0xaaaaee079d20 -->
<g id="node2" class="node">
<title>capsfilter5_0xaaaaedfa9230_sink_0xaaaaee079d20</title>
<polygon fill="#aaaaff" stroke="#000000" points="4206.5492,-119.6036 4152.5492,-119.6036 4152.5492,-98.3964 4206.5492,-98.3964 4206.5492,-119.6036"/>
<text text-anchor="middle" x="4179.5492" y="-111.7" font-family="sans" font-size="9.00" fill="#000000">sink</text>
<text text-anchor="middle" x="4179.5492" y="-100.9" font-family="sans" font-size="9.00" fill="#000000">[&gt;][bfb]</text>
</g>
<!-- capsfilter5_0xaaaaedfa9230_src_0xaaaaee1721a0 -->
<g id="node3" class="node">
<title>capsfilter5_0xaaaaedfa9230_src_0xaaaaee1721a0</title>
<polygon fill="#ffaaaa" stroke="#000000" points="4551.5492,-119.6036 4497.5492,-119.6036 4497.5492,-98.3964 4551.5492,-98.3964 4551.5492,-119.6036"/>
<text text-anchor="middle" x="4524.5492" y="-111.7" font-family="sans" font-size="9.00" fill="#000000">src</text>
<text text-anchor="middle" x="4524.5492" y="-100.9" font-family="sans" font-size="9.00" fill="#000000">[&gt;][bfb]</text>
</g>
<!-- capsfilter5_0xaaaaedfa9230_sink_0xaaaaee079d20&#45;&gt;capsfilter5_0xaaaaedfa9230_src_0xaaaaee1721a0 -->
<!-- tensorconverter1_0xaaaaee160f40_sink_0xaaaaee0783b0 -->
<g id="node4" class="node">
<title>tensorconverter1_0xaaaaee160f40_sink_0xaaaaee0783b0</title>
<polygon fill="#aaaaff" stroke="#000000" points="4863.2561,-119.6036 4809.2561,-119.6036 4809.2561,-98.3964 4863.2561,-98.3964 4863.2561,-119.6036"/>
<text text-anchor="middle" x="4836.2561" y="-111.7" font-family="sans" font-size="9.00" fill="#000000">sink</text>
<text text-anchor="middle" x="4836.2561" y="-100.9" font-family="sans" font-size="9.00" fill="#000000">[&gt;][bfb]</text>
</g>
<!-- capsfilter5_0xaaaaedfa9230_src_0xaaaaee1721a0&#45;&gt;tensorconverter1_0xaaaaee160f40_sink_0xaaaaee0783b0 -->
<g id="edge2" class="edge">
<title>capsfilter5_0xaaaaedfa9230_src_0xaaaaee1721a0-&gt;tensorconverter1_0xaaaaee160f40_sink_0xaaaaee0783b0</title>
<path fill="none" stroke="#000000" d="M4551.6658,-109C4607.3929,-109 4734.8926,-109 4798.5917,-109"/>
<polygon fill="#000000" stroke="#000000" points="4798.9802,-112.5001 4808.9801,-109 4798.9801,-105.5001 4798.9802,-112.5001"/>
<text text-anchor="start" x="4623.5492" y="-187.3" font-family="monospace" font-size="9.00" fill="#000000">video/x-raw</text>
<text text-anchor="start" x="4623.5492" y="-176.5" font-family="monospace" font-size="9.00" fill="#000000">               width: 256</text>
<text text-anchor="start" x="4623.5492" y="-165.7" font-family="monospace" font-size="9.00" fill="#000000">              height: 256</text>
<text text-anchor="start" x="4623.5492" y="-154.9" font-family="monospace" font-size="9.00" fill="#000000">           framerate: 30/1</text>
<text text-anchor="start" x="4623.5492" y="-144.1" font-family="monospace" font-size="9.00" fill="#000000">               views: 1</text>
<text text-anchor="start" x="4623.5492" y="-133.3" font-family="monospace" font-size="9.00" fill="#000000">      interlace-mode: progressive</text>
<text text-anchor="start" x="4623.5492" y="-122.5" font-family="monospace" font-size="9.00" fill="#000000">  pixel-aspect-ratio: 4/3</text>
<text text-anchor="start" x="4623.5492" y="-111.7" font-family="monospace" font-size="9.00" fill="#000000">              format: RGB</text>
</g>
<!-- tensorconverter1_0xaaaaee160f40_src_0xaaaaee078600 -->
<g id="node16" class="node">
<title>tensorconverter1_0xaaaaee160f40_src_0xaaaaee078600</title>
<polygon fill="#ffaaaa" stroke="#000000" points="5208.2561,-119.6036 5154.2561,-119.6036 5154.2561,-98.3964 5208.2561,-98.3964 5208.2561,-119.6036"/>
<text text-anchor="middle" x="5181.2561" y="-111.7" font-family="sans" font-size="9.00" fill="#000000">src</text>
<text text-anchor="middle" x="5181.2561" y="-100.9" font-family="sans" font-size="9.00" fill="#000000">[&gt;][bfb]</text>
</g>
<!-- tensorconverter1_0xaaaaee160f40_sink_0xaaaaee0783b0&#45;&gt;tensorconverter1_0xaaaaee160f40_src_0xaaaaee078600 -->
<!-- capsfilter4_0xaaaaedfa8ef0_sink_0xaaaaee079880 -->
<g id="node5" class="node">
<title>capsfilter4_0xaaaaedfa8ef0_sink_0xaaaaee079880</title>
<polygon fill="#aaaaff" stroke="#000000" points="2893.1354,-119.6036 2839.1354,-119.6036 2839.1354,-98.3964 2893.1354,-98.3964 2893.1354,-119.6036"/>
<text text-anchor="middle" x="2866.1354" y="-111.7" font-family="sans" font-size="9.00" fill="#000000">sink</text>
<text text-anchor="middle" x="2866.1354" y="-100.9" font-family="sans" font-size="9.00" fill="#000000">[&gt;][bfb]</text>
</g>
<!-- capsfilter4_0xaaaaedfa8ef0_src_0xaaaaee079ad0 -->
<g id="node6" class="node">
<title>capsfilter4_0xaaaaedfa8ef0_src_0xaaaaee079ad0</title>
<polygon fill="#ffaaaa" stroke="#000000" points="3238.1354,-119.6036 3184.1354,-119.6036 3184.1354,-98.3964 3238.1354,-98.3964 3238.1354,-119.6036"/>
<text text-anchor="middle" x="3211.1354" y="-111.7" font-family="sans" font-size="9.00" fill="#000000">src</text>
<text text-anchor="middle" x="3211.1354" y="-100.9" font-family="sans" font-size="9.00" fill="#000000">[&gt;][bfb]</text>
</g>
<!-- capsfilter4_0xaaaaedfa8ef0_sink_0xaaaaee079880&#45;&gt;capsfilter4_0xaaaaedfa8ef0_src_0xaaaaee079ad0 -->
<!-- videoconvert1_0xaaaaee0cb680_sink_0xaaaaedfa3c30 -->
<g id="node7" class="node">
<title>videoconvert1_0xaaaaee0cb680_sink_0xaaaaedfa3c30</title>
<polygon fill="#aaaaff" stroke="#000000" points="3549.8423,-119.6036 3495.8423,-119.6036 3495.8423,-98.3964 3549.8423,-98.3964 3549.8423,-119.6036"/>
<text text-anchor="middle" x="3522.8423" y="-111.7" font-family="sans" font-size="9.00" fill="#000000">sink</text>
<text text-anchor="middle" x="3522.8423" y="-100.9" font-family="sans" font-size="9.00" fill="#000000">[&gt;][bfb]</text>
</g>
<!-- capsfilter4_0xaaaaedfa8ef0_src_0xaaaaee079ad0&#45;&gt;videoconvert1_0xaaaaee0cb680_sink_0xaaaaedfa3c30 -->
<g id="edge4" class="edge">
<title>capsfilter4_0xaaaaedfa8ef0_src_0xaaaaee079ad0-&gt;videoconvert1_0xaaaaee0cb680_sink_0xaaaaedfa3c30</title>
<path fill="none" stroke="#000000" d="M3238.252,-109C3293.9791,-109 3421.4788,-109 3485.1779,-109"/>
<polygon fill="#000000" stroke="#000000" points="3485.5664,-112.5001 3495.5663,-109 3485.5663,-105.5001 3485.5664,-112.5001"/>
<text text-anchor="start" x="3310.1354" y="-187.3" font-family="monospace" font-size="9.00" fill="#000000">video/x-raw</text>
<text text-anchor="start" x="3310.1354" y="-176.5" font-family="monospace" font-size="9.00" fill="#000000">               width: 256</text>
<text text-anchor="start" x="3310.1354" y="-165.7" font-family="monospace" font-size="9.00" fill="#000000">              height: 256</text>
<text text-anchor="start" x="3310.1354" y="-154.9" font-family="monospace" font-size="9.00" fill="#000000">           framerate: 30/1</text>
<text text-anchor="start" x="3310.1354" y="-144.1" font-family="monospace" font-size="9.00" fill="#000000">              format: RGBx</text>
<text text-anchor="start" x="3310.1354" y="-133.3" font-family="monospace" font-size="9.00" fill="#000000">               views: 1</text>
<text text-anchor="start" x="3310.1354" y="-122.5" font-family="monospace" font-size="9.00" fill="#000000">      interlace-mode: progressive</text>
<text text-anchor="start" x="3310.1354" y="-111.7" font-family="monospace" font-size="9.00" fill="#000000">  pixel-aspect-ratio: 4/3</text>
</g>
<!-- videoconvert1_0xaaaaee0cb680_src_0xaaaaee078160 -->
<g id="node17" class="node">
<title>videoconvert1_0xaaaaee0cb680_src_0xaaaaee078160</title>
<polygon fill="#ffaaaa" stroke="#000000" points="3894.8423,-119.6036 3840.8423,-119.6036 3840.8423,-98.3964 3894.8423,-98.3964 3894.8423,-119.6036"/>
<text text-anchor="middle" x="3867.8423" y="-111.7" font-family="sans" font-size="9.00" fill="#000000">src</text>
<text text-anchor="middle" x="3867.8423" y="-100.9" font-family="sans" font-size="9.00" fill="#000000">[&gt;][bfb]</text>
</g>
<!-- videoconvert1_0xaaaaee0cb680_sink_0xaaaaedfa3c30&#45;&gt;videoconvert1_0xaaaaee0cb680_src_0xaaaaee078160 -->
<!-- capsfilter3_0xaaaaedfa8bb0_sink_0xaaaaee0793e0 -->
<g id="node8" class="node">
<title>capsfilter3_0xaaaaedfa8bb0_sink_0xaaaaee0793e0</title>
<polygon fill="#aaaaff" stroke="#000000" points="913.6966,-119.6036 859.6966,-119.6036 859.6966,-98.3964 913.6966,-98.3964 913.6966,-119.6036"/>
<text text-anchor="middle" x="886.6966" y="-111.7" font-family="sans" font-size="9.00" fill="#000000">sink</text>
<text text-anchor="middle" x="886.6966" y="-100.9" font-family="sans" font-size="9.00" fill="#000000">[&gt;][bfb]</text>
</g>
<!-- capsfilter3_0xaaaaedfa8bb0_src_0xaaaaee079630 -->
<g id="node9" class="node">
<title>capsfilter3_0xaaaaedfa8bb0_src_0xaaaaee079630</title>
<polygon fill="#ffaaaa" stroke="#000000" points="1258.6966,-119.6036 1204.6966,-119.6036 1204.6966,-98.3964 1258.6966,-98.3964 1258.6966,-119.6036"/>
<text text-anchor="middle" x="1231.6966" y="-111.7" font-family="sans" font-size="9.00" fill="#000000">src</text>
<text text-anchor="middle" x="1231.6966" y="-100.9" font-family="sans" font-size="9.00" fill="#000000">[&gt;][bfb]</text>
</g>
<!-- capsfilter3_0xaaaaedfa8bb0_sink_0xaaaaee0793e0&#45;&gt;capsfilter3_0xaaaaedfa8bb0_src_0xaaaaee079630 -->
<!-- video_crop_0xaaaaedfae650_sink_0xaaaaedfa32f0 -->
<g id="node10" class="node">
<title>video_crop_0xaaaaedfae650_sink_0xaaaaedfa32f0</title>
<polygon fill="#aaaaff" stroke="#000000" points="1580.9285,-119.6036 1526.9285,-119.6036 1526.9285,-98.3964 1580.9285,-98.3964 1580.9285,-119.6036"/>
<text text-anchor="middle" x="1553.9285" y="-111.7" font-family="sans" font-size="9.00" fill="#000000">sink</text>
<text text-anchor="middle" x="1553.9285" y="-100.9" font-family="sans" font-size="9.00" fill="#000000">[&gt;][bfb]</text>
</g>
<!-- capsfilter3_0xaaaaedfa8bb0_src_0xaaaaee079630&#45;&gt;video_crop_0xaaaaedfae650_sink_0xaaaaedfa32f0 -->
<g id="edge6" class="edge">
<title>capsfilter3_0xaaaaedfa8bb0_src_0xaaaaee079630-&gt;video_crop_0xaaaaedfae650_sink_0xaaaaedfa32f0</title>
<path fill="none" stroke="#000000" d="M1258.8921,-109C1316.5274,-109 1451.0365,-109 1516.6304,-109"/>
<polygon fill="#000000" stroke="#000000" points="1516.9193,-112.5001 1526.9193,-109 1516.9193,-105.5001 1516.9193,-112.5001"/>
<text text-anchor="start" x="1370.6966" y="-154.9" font-family="monospace" font-size="9.00" fill="#000000">video/x-raw</text>
<text text-anchor="start" x="1370.6966" y="-144.1" font-family="monospace" font-size="9.00" fill="#000000">               width: 640</text>
<text text-anchor="start" x="1370.6966" y="-133.3" font-family="monospace" font-size="9.00" fill="#000000">              height: 480</text>
<text text-anchor="start" x="1370.6966" y="-122.5" font-family="monospace" font-size="9.00" fill="#000000">           framerate: 30/1</text>
<text text-anchor="start" x="1370.6966" y="-111.7" font-family="monospace" font-size="9.00" fill="#000000">              format: YUY2</text>
</g>
<!-- video_crop_0xaaaaedfae650_src_0xaaaaedfa3540 -->
<g id="node20" class="node">
<title>video_crop_0xaaaaedfae650_src_0xaaaaedfa3540</title>
<polygon fill="#ffaaaa" stroke="#000000" points="1925.9285,-119.6036 1871.9285,-119.6036 1871.9285,-98.3964 1925.9285,-98.3964 1925.9285,-119.6036"/>
<text text-anchor="middle" x="1898.9285" y="-111.7" font-family="sans" font-size="9.00" fill="#000000">src</text>
<text text-anchor="middle" x="1898.9285" y="-100.9" font-family="sans" font-size="9.00" fill="#000000">[&gt;][bfb]</text>
</g>
<!-- video_crop_0xaaaaedfae650_sink_0xaaaaedfa32f0&#45;&gt;video_crop_0xaaaaedfae650_src_0xaaaaedfa3540 -->
<!-- second_tensor_sink_0xaaaaee158090_sink_0xaaaaee079190 -->
<g id="node11" class="node">
<title>second_tensor_sink_0xaaaaee158090_sink_0xaaaaee079190</title>
<polygon fill="#aaaaff" stroke="#000000" points="7050.1104,-119.6036 6996.1104,-119.6036 6996.1104,-98.3964 7050.1104,-98.3964 7050.1104,-119.6036"/>
<text text-anchor="middle" x="7023.1104" y="-111.7" font-family="sans" font-size="9.00" fill="#000000">sink</text>
<text text-anchor="middle" x="7023.1104" y="-100.9" font-family="sans" font-size="9.00" fill="#000000">[&gt;][bfb]</text>
</g>
<!-- tensor_filter_landmark_0xaaaaee157040_sink_0xaaaaee078cf0 -->
<g id="node12" class="node">
<title>tensor_filter_landmark_0xaaaaee157040_sink_0xaaaaee078cf0</title>
<polygon fill="#aaaaff" stroke="#000000" points="6206.2619,-119.6036 6152.2619,-119.6036 6152.2619,-98.3964 6206.2619,-98.3964 6206.2619,-119.6036"/>
<text text-anchor="middle" x="6179.2619" y="-111.7" font-family="sans" font-size="9.00" fill="#000000">sink</text>
<text text-anchor="middle" x="6179.2619" y="-100.9" font-family="sans" font-size="9.00" fill="#000000">[&gt;][bfb]</text>
</g>
<!-- tensor_filter_landmark_0xaaaaee157040_src_0xaaaaee078f40 -->
<g id="node13" class="node">
<title>tensor_filter_landmark_0xaaaaee157040_src_0xaaaaee078f40</title>
<polygon fill="#ffaaaa" stroke="#000000" points="6551.2619,-119.6036 6497.2619,-119.6036 6497.2619,-98.3964 6551.2619,-98.3964 6551.2619,-119.6036"/>
<text text-anchor="middle" x="6524.2619" y="-111.7" font-family="sans" font-size="9.00" fill="#000000">src</text>
<text text-anchor="middle" x="6524.2619" y="-100.9" font-family="sans" font-size="9.00" fill="#000000">[&gt;][bfb]</text>
</g>
<!-- tensor_filter_landmark_0xaaaaee157040_sink_0xaaaaee078cf0&#45;&gt;tensor_filter_landmark_0xaaaaee157040_src_0xaaaaee078f40 -->
<!-- tensor_filter_landmark_0xaaaaee157040_src_0xaaaaee078f40&#45;&gt;second_tensor_sink_0xaaaaee158090_sink_0xaaaaee079190 -->
<g id="edge8" class="edge">
<title>tensor_filter_landmark_0xaaaaee157040_src_0xaaaaee078f40-&gt;second_tensor_sink_0xaaaaee158090_sink_0xaaaaee079190</title>
<path fill="none" stroke="#000000" d="M6551.4364,-109C6635.214,-109 6889.6428,-109 6985.7836,-109"/>
<polygon fill="#000000" stroke="#000000" points="6985.9112,-112.5001 6995.9112,-109 6985.9112,-105.5001 6985.9112,-112.5001"/>
<text text-anchor="start" x="6660.2619" y="-165.7" font-family="monospace" font-size="9.00" fill="#000000">other/tensors</text>
<text text-anchor="start" x="6660.2619" y="-154.9" font-family="monospace" font-size="9.00" fill="#000000">              format: static</text>
<text text-anchor="start" x="6660.2619" y="-144.1" font-family="monospace" font-size="9.00" fill="#000000">         num_tensors: 5</text>
<text text-anchor="start" x="6660.2619" y="-133.3" font-family="monospace" font-size="9.00" fill="#000000">           framerate: 30/1</text>
<text text-anchor="start" x="6660.2619" y="-122.5" font-family="monospace" font-size="9.00" fill="#000000">          dimensions: "1:256:256:1\,39:64:... "</text>
<text text-anchor="start" x="6660.2619" y="-111.7" font-family="monospace" font-size="9.00" fill="#000000">               types: "float32\,float32\,f... "</text>
</g>
<!-- tensortransform1_0xaaaaee1557e0_sink_0xaaaaee078850 -->
<g id="node14" class="node">
<title>tensortransform1_0xaaaaee1557e0_sink_0xaaaaee078850</title>
<polygon fill="#aaaaff" stroke="#000000" points="5516.759,-119.6036 5462.759,-119.6036 5462.759,-98.3964 5516.759,-98.3964 5516.759,-119.6036"/>
<text text-anchor="middle" x="5489.759" y="-111.7" font-family="sans" font-size="9.00" fill="#000000">sink</text>
<text text-anchor="middle" x="5489.759" y="-100.9" font-family="sans" font-size="9.00" fill="#000000">[&gt;][bfb]</text>
</g>
<!-- tensortransform1_0xaaaaee1557e0_src_0xaaaaee078aa0 -->
<g id="node15" class="node">
<title>tensortransform1_0xaaaaee1557e0_src_0xaaaaee078aa0</title>
<polygon fill="#ffaaaa" stroke="#000000" points="5861.759,-119.6036 5807.759,-119.6036 5807.759,-98.3964 5861.759,-98.3964 5861.759,-119.6036"/>
<text text-anchor="middle" x="5834.759" y="-111.7" font-family="sans" font-size="9.00" fill="#000000">src</text>
<text text-anchor="middle" x="5834.759" y="-100.9" font-family="sans" font-size="9.00" fill="#000000">[&gt;][bfb]</text>
</g>
<!-- tensortransform1_0xaaaaee1557e0_sink_0xaaaaee078850&#45;&gt;tensortransform1_0xaaaaee1557e0_src_0xaaaaee078aa0 -->
<!-- tensortransform1_0xaaaaee1557e0_src_0xaaaaee078aa0&#45;&gt;tensor_filter_landmark_0xaaaaee157040_sink_0xaaaaee078cf0 -->
<g id="edge10" class="edge">
<title>tensortransform1_0xaaaaee1557e0_src_0xaaaaee078aa0-&gt;tensor_filter_landmark_0xaaaaee157040_sink_0xaaaaee078cf0</title>
<path fill="none" stroke="#000000" d="M5861.7915,-109C5922.8958,-109 6071.7692,-109 6141.7475,-109"/>
<polygon fill="#000000" stroke="#000000" points="6141.8782,-112.5001 6151.8782,-109 6141.8781,-105.5001 6141.8782,-112.5001"/>
<text text-anchor="start" x="5933.759" y="-144.1" font-family="monospace" font-size="9.00" fill="#000000">other/tensor</text>
<text text-anchor="start" x="5933.759" y="-133.3" font-family="monospace" font-size="9.00" fill="#000000">           framerate: 30/1</text>
<text text-anchor="start" x="5933.759" y="-122.5" font-family="monospace" font-size="9.00" fill="#000000">           dimension: 3:256:256:1</text>
<text text-anchor="start" x="5933.759" y="-111.7" font-family="monospace" font-size="9.00" fill="#000000">                type: float32</text>
</g>
<!-- tensorconverter1_0xaaaaee160f40_src_0xaaaaee078600&#45;&gt;tensortransform1_0xaaaaee1557e0_sink_0xaaaaee078850 -->
<g id="edge12" class="edge">
<title>tensorconverter1_0xaaaaee160f40_src_0xaaaaee078600-&gt;tensortransform1_0xaaaaee1557e0_sink_0xaaaaee078850</title>
<path fill="none" stroke="#000000" d="M5208.3632,-109C5263.5428,-109 5389.0158,-109 5452.0878,-109"/>
<polygon fill="#000000" stroke="#000000" points="5452.3819,-112.5001 5462.3819,-109 5452.3819,-105.5001 5452.3819,-112.5001"/>
<text text-anchor="start" x="5280.2561" y="-144.1" font-family="monospace" font-size="9.00" fill="#000000">other/tensor</text>
<text text-anchor="start" x="5280.2561" y="-133.3" font-family="monospace" font-size="9.00" fill="#000000">           framerate: 30/1</text>
<text text-anchor="start" x="5280.2561" y="-122.5" font-family="monospace" font-size="9.00" fill="#000000">           dimension: 3:256:256:1</text>
<text text-anchor="start" x="5280.2561" y="-111.7" font-family="monospace" font-size="9.00" fill="#000000">                type: uint8</text>
</g>
<!-- videoconvert1_0xaaaaee0cb680_src_0xaaaaee078160&#45;&gt;capsfilter5_0xaaaaedfa9230_sink_0xaaaaee079d20 -->
<g id="edge14" class="edge">
<title>videoconvert1_0xaaaaee0cb680_src_0xaaaaee078160-&gt;capsfilter5_0xaaaaedfa9230_sink_0xaaaaee079d20</title>
<path fill="none" stroke="#000000" d="M3894.9589,-109C3950.686,-109 4078.1857,-109 4141.8848,-109"/>
<polygon fill="#000000" stroke="#000000" points="4142.2733,-112.5001 4152.2732,-109 4142.2732,-105.5001 4142.2733,-112.5001"/>
<text text-anchor="start" x="3966.8423" y="-187.3" font-family="monospace" font-size="9.00" fill="#000000">video/x-raw</text>
<text text-anchor="start" x="3966.8423" y="-176.5" font-family="monospace" font-size="9.00" fill="#000000">               width: 256</text>
<text text-anchor="start" x="3966.8423" y="-165.7" font-family="monospace" font-size="9.00" fill="#000000">              height: 256</text>
<text text-anchor="start" x="3966.8423" y="-154.9" font-family="monospace" font-size="9.00" fill="#000000">           framerate: 30/1</text>
<text text-anchor="start" x="3966.8423" y="-144.1" font-family="monospace" font-size="9.00" fill="#000000">               views: 1</text>
<text text-anchor="start" x="3966.8423" y="-133.3" font-family="monospace" font-size="9.00" fill="#000000">      interlace-mode: progressive</text>
<text text-anchor="start" x="3966.8423" y="-122.5" font-family="monospace" font-size="9.00" fill="#000000">  pixel-aspect-ratio: 4/3</text>
<text text-anchor="start" x="3966.8423" y="-111.7" font-family="monospace" font-size="9.00" fill="#000000">              format: RGB</text>
</g>
<!-- imxvideoconvert_g2d2_0xaaaaedfaf060_sink_0xaaaaedfa3790 -->
<g id="node18" class="node">
<title>imxvideoconvert_g2d2_0xaaaaedfaf060_sink_0xaaaaedfa3790</title>
<polygon fill="#aaaaff" stroke="#000000" points="2236.4285,-119.6036 2182.4285,-119.6036 2182.4285,-98.3964 2236.4285,-98.3964 2236.4285,-119.6036"/>
<text text-anchor="middle" x="2209.4285" y="-111.7" font-family="sans" font-size="9.00" fill="#000000">sink</text>
<text text-anchor="middle" x="2209.4285" y="-100.9" font-family="sans" font-size="9.00" fill="#000000">[&gt;][bfb]</text>
</g>
<!-- imxvideoconvert_g2d2_0xaaaaedfaf060_src_0xaaaaedfa39e0 -->
<g id="node19" class="node">
<title>imxvideoconvert_g2d2_0xaaaaedfaf060_src_0xaaaaedfa39e0</title>
<polygon fill="#ffaaaa" stroke="#000000" points="2581.4285,-119.6036 2527.4285,-119.6036 2527.4285,-98.3964 2581.4285,-98.3964 2581.4285,-119.6036"/>
<text text-anchor="middle" x="2554.4285" y="-111.7" font-family="sans" font-size="9.00" fill="#000000">src</text>
<text text-anchor="middle" x="2554.4285" y="-100.9" font-family="sans" font-size="9.00" fill="#000000">[&gt;][bfb]</text>
</g>
<!-- imxvideoconvert_g2d2_0xaaaaedfaf060_sink_0xaaaaedfa3790&#45;&gt;imxvideoconvert_g2d2_0xaaaaedfaf060_src_0xaaaaedfa39e0 -->
<!-- imxvideoconvert_g2d2_0xaaaaedfaf060_src_0xaaaaedfa39e0&#45;&gt;capsfilter4_0xaaaaedfa8ef0_sink_0xaaaaee079880 -->
<g id="edge16" class="edge">
<title>imxvideoconvert_g2d2_0xaaaaedfaf060_src_0xaaaaedfa39e0-&gt;capsfilter4_0xaaaaedfa8ef0_sink_0xaaaaee079880</title>
<path fill="none" stroke="#000000" d="M2581.5451,-109C2637.2722,-109 2764.7719,-109 2828.471,-109"/>
<polygon fill="#000000" stroke="#000000" points="2828.8595,-112.5001 2838.8594,-109 2828.8594,-105.5001 2828.8595,-112.5001"/>
<text text-anchor="start" x="2653.4285" y="-187.3" font-family="monospace" font-size="9.00" fill="#000000">video/x-raw</text>
<text text-anchor="start" x="2653.4285" y="-176.5" font-family="monospace" font-size="9.00" fill="#000000">               width: 256</text>
<text text-anchor="start" x="2653.4285" y="-165.7" font-family="monospace" font-size="9.00" fill="#000000">              height: 256</text>
<text text-anchor="start" x="2653.4285" y="-154.9" font-family="monospace" font-size="9.00" fill="#000000">           framerate: 30/1</text>
<text text-anchor="start" x="2653.4285" y="-144.1" font-family="monospace" font-size="9.00" fill="#000000">              format: RGBx</text>
<text text-anchor="start" x="2653.4285" y="-133.3" font-family="monospace" font-size="9.00" fill="#000000">               views: 1</text>
<text text-anchor="start" x="2653.4285" y="-122.5" font-family="monospace" font-size="9.00" fill="#000000">      interlace-mode: progressive</text>
<text text-anchor="start" x="2653.4285" y="-111.7" font-family="monospace" font-size="9.00" fill="#000000">  pixel-aspect-ratio: 4/3</text>
</g>
<!-- video_crop_0xaaaaedfae650_src_0xaaaaedfa3540&#45;&gt;imxvideoconvert_g2d2_0xaaaaedfaf060_sink_0xaaaaedfa3790 -->
<g id="edge18" class="edge">
<title>video_crop_0xaaaaedfae650_src_0xaaaaedfa3540-&gt;imxvideoconvert_g2d2_0xaaaaedfaf060_sink_0xaaaaedfa3790</title>
<path fill="none" stroke="#000000" d="M1925.9401,-109C1981.4514,-109 2108.4575,-109 2171.91,-109"/>
<polygon fill="#000000" stroke="#000000" points="2172.2582,-112.5001 2182.2581,-109 2172.2581,-105.5001 2172.2582,-112.5001"/>
<text text-anchor="middle" x="2054.1785" y="-111.7" font-family="monospace" font-size="9.00" fill="#000000">                                                  </text>
<text text-anchor="start" x="2054.1808" y="-121.6" font-family="monospace" font-size="6.00" fill="#000000">video/x-raw</text>
<text text-anchor="start" x="2054.1808" y="-114.4" font-family="monospace" font-size="6.00" fill="#000000">               width: 444</text>
<text text-anchor="start" x="2054.1808" y="-107.2" font-family="monospace" font-size="6.00" fill="#000000">              height: 443</text>
<text text-anchor="start" x="2054.1808" y="-100" font-family="monospace" font-size="6.00" fill="#000000">           framerate: 30/1</text>
<text text-anchor="start" x="2054.1808" y="-92.8" font-family="monospace" font-size="6.00" fill="#000000">              format: YUY2</text>
<text text-anchor="start" x="1997.8628" y="-121.6" font-family="monospace" font-size="6.00" fill="#000000">video/x-raw</text>
<text text-anchor="start" x="1997.8628" y="-114.4" font-family="monospace" font-size="6.00" fill="#000000">               width: 347</text>
<text text-anchor="start" x="1997.8628" y="-107.2" font-family="monospace" font-size="6.00" fill="#000000">              height: 347</text>
<text text-anchor="start" x="1997.8628" y="-100" font-family="monospace" font-size="6.00" fill="#000000">           framerate: 30/1</text>
<text text-anchor="start" x="1997.8628" y="-92.8" font-family="monospace" font-size="6.00" fill="#000000">              format: YUY2</text>
</g>
<!-- appsrc_video_0xaaaaedfacad0_src_0xaaaaedfa30a0 -->
<g id="node21" class="node">
<title>appsrc_video_0xaaaaedfacad0_src_0xaaaaedfa30a0</title>
<polygon fill="#ffaaaa" stroke="#000000" points="323,-119.6036 269,-119.6036 269,-98.3964 323,-98.3964 323,-119.6036"/>
<text text-anchor="middle" x="296" y="-111.7" font-family="sans" font-size="9.00" fill="#000000">src</text>
<text text-anchor="middle" x="296" y="-100.9" font-family="sans" font-size="9.00" fill="#000000">[&gt;][bfb][T]</text>
</g>
<!-- appsrc_video_0xaaaaedfacad0_src_0xaaaaedfa30a0&#45;&gt;capsfilter3_0xaaaaedfa8bb0_sink_0xaaaaee0793e0 -->
<g id="edge19" class="edge">
<title>appsrc_video_0xaaaaedfacad0_src_0xaaaaedfa30a0-&gt;capsfilter3_0xaaaaedfa8bb0_sink_0xaaaaee0793e0</title>
<path fill="none" stroke="#000000" d="M323.3058,-109C419.0455,-109 739.6231,-109 849.4281,-109"/>
<polygon fill="#000000" stroke="#000000" points="849.6804,-112.5001 859.6803,-109 849.6803,-105.5001 849.6804,-112.5001"/>
<text text-anchor="start" x="663.4647" y="-154.9" font-family="monospace" font-size="9.00" fill="#000000">video/x-raw</text>
<text text-anchor="start" x="663.4647" y="-144.1" font-family="monospace" font-size="9.00" fill="#000000">               width: 640</text>
<text text-anchor="start" x="663.4647" y="-133.3" font-family="monospace" font-size="9.00" fill="#000000">              height: 480</text>
<text text-anchor="start" x="663.4647" y="-122.5" font-family="monospace" font-size="9.00" fill="#000000">           framerate: 30/1</text>
<text text-anchor="start" x="663.4647" y="-111.7" font-family="monospace" font-size="9.00" fill="#000000">              format: YUY2</text>
</g>
</g>
</svg>